<?xml version="1.0" standalone="no"?>
<!DOCTYPE svg PUBLIC "-//W3C//DTD SVG 20010904//EN"
 "http://www.w3.org/TR/2001/REC-SVG-20010904/DTD/svg10.dtd">
<svg version="1.0" xmlns="http://www.w3.org/2000/svg"
 width="205.000000pt" height="205.000000pt" viewBox="0 0 205.000000 205.000000"
 preserveAspectRatio="xMidYMid meet">
<metadata>
Created by potrace 1.11, written by Peter Selinger 2001-2013
</metadata>
<g transform="translate(0.000000,205.000000) scale(0.100000,-0.100000)"
fill="#000000" stroke="none">
<path d="M80 1023 c0 -504 2 -914 5 -912 2 3 31 43 64 90 93 130 163 227 199
275 l32 44 0 145 0 145 104 0 104 0 39 58 c38 56 100 142 153 212 l27 35 -214
-3 -213 -3 0 255 0 256 393 0 393 0 58 83 c31 45 81 117 111 160 l55 77 -655
0 -655 0 0 -917z"/>
<path d="M1502 1898 c-18 -24 -53 -72 -80 -108 -52 -71 -112 -159 -112 -164 0
-2 69 -6 153 -8 168 -5 221 -20 245 -73 8 -17 12 -83 12 -184 0 -147 -2 -160
-22 -186 -44 -56 -63 -59 -430 -65 l-337 -5 -46 -65 c-25 -36 -65 -95 -90
-132 -25 -37 -50 -70 -55 -73 -35 -21 19 -25 368 -25 372 0 593 10 615 28 7 5
30 15 52 22 138 44 207 124 241 280 22 104 19 394 -6 498 -45 190 -159 272
-411 297 l-66 6 -31 -43z"/>
</g>
</svg>
